<?xml version="1.0" encoding="utf-8"?>
<!DOCTYPE svg PUBLIC "-//W3C//DTD SVG 1.0//EN" "http://www.w3.org/TR/2001/REC-SVG-20010904/DTD/svg10.dtd">
<svg version="1.0" xmlns="http://www.w3.org/2000/svg" width="200px" height="200px" viewBox="0 0 200 200" preserveAspectRatio="xMidYMid meet">
 <g fill="#fbfbfb">
  <path d="M0 100 l0 -100 100 0 100 0 0 100 0 100 -100 0 -100 0 0 -100z m45 7.65 c0 -1.80 0 -1.80 -1 -0.90 -0.95 0.85 -0.95 0.95 -0.20 1.85 1.15 1.20 1.20 1.20 1.20 -0.95z m0 -6.90 c0 -0.70 -0.05 -1.25 -0.15 -1.25 -0.10 0 -0.70 0.55 -1.35 1.25 l-1.15 1.25 1.30 0 c1.10 0 1.35 -0.25 1.35 -1.25z m-0.15 -12.55 c-0.10 -0.10 -5.10 -0.35 -11.15 -0.50 l-10.95 -0.30 2.40 2.45 c1.30 1.35 2.35 2.75 2.35 3.15 0 0.45 0.50 0.20 1.40 -0.65 1.75 -1.65 5.55 -1.95 5.90 -0.45 0.20 0.70 0.70 0.80 2.50 0.65 1.95 -0.15 2.30 0 2.55 0.85 0.20 0.85 0.70 1.10 2.60 1.20 l2.30 0.15 0.15 -3.20 c0.10 -1.75 0.05 -3.25 -0.05 -3.35z"/>
 </g>
 <g fill="#ffc800">
  <path d="M22.15 113.20 c-0.20 -0.55 2.15 -3.20 8.10 -9.20 5.95 -6 8.30 -8.65 8.10 -9.20 -0.20 -0.45 -0.50 -0.80 -0.70 -0.80 -0.25 0 -2.90 2.45 -5.90 5.50 -3 3.05 -5.75 5.50 -6.05 5.50 -0.35 0 -0.75 -0.40 -0.90 -0.85 -0.25 -0.60 0.90 -2.10 4.25 -5.45 3.20 -3.20 4.50 -4.85 4.30 -5.40 -0.20 -0.45 -0.60 -0.80 -0.95 -0.80 -0.35 0 -3.25 2.60 -6.45 5.80 -5.35 5.30 -6.95 6.35 -6.95 4.55 0 -0.35 1.60 -2.20 3.50 -4.10 1.95 -1.90 3.50 -3.80 3.50 -4.20 0 -0.45 -1.40 -2.15 -3.05 -3.85 -4.80 -4.85 -4.95 -4.80 10.40 -4.60 l12.90 0.15 0.15 12.95 c0.05 8.35 -0.05 13.15 -0.40 13.50 -0.35 0.35 -1.30 -0.30 -3 -1.95 -1.40 -1.35 -2.50 -2.70 -2.50 -3 0 -0.30 0.70 -1.20 1.50 -2 1.50 -1.45 1.90 -2.25 1.10 -2.25 -0.25 0 -3.20 2.35 -6.60 5.25 -3.40 2.90 -6.35 5.25 -6.60 5.25 -0.25 0 -0.55 -0.35 -0.75 -0.80 -0.20 -0.55 1.85 -2.95 7.10 -8.20 5.25 -5.25 7.30 -7.65 7.10 -8.20 -0.20 -0.45 -0.60 -0.80 -0.95 -0.80 -0.35 0 -4.70 4.05 -9.65 9 -4.95 4.95 -9.30 9 -9.65 9 -0.35 0 -0.75 -0.35 -0.95 -0.80z"/>
 </g>
<g opacity="0.5" transform="rotate(-45, 100.0, 100.0)">
  <text x="50%" y="50%" font-size="20" text-anchor="middle" fill="lightgray" dominant-baseline="middle">
    generated by vectorizer.io
  </text>
</g>
</svg>